# File created by Blade
# Date/Time:  Thu Jan 22 16:21:39 2015
# Frame Rate: 120.000 fps
#------------------------------------------------------
:FULLY-SPECIFIED
:DEGREES
2339
root 4.798034 37.972428 6.071381 -19.189893 -17.614548 8.216131
RightUpLeg 17.423588 5.745969 -7.153835
RightLeg 6.617496 -0.000000 -0.000000
RightFoot -11.545867 -12.112647 6.827428
RightToeBase 5.617022 -0.000000 -0.000000
LeftUpLeg -73.054456 -28.364131 -17.314615
LeftLeg 110.375944 -0.000000 -0.000000
LeftFoot 3.272734 11.589750 -31.598405
LeftToeBase 7.115013 -0.000000 -0.000000
Spine 40.586040 37.784182 28.492737
RightShoulder 3.709322 -21.071143 -25.727033
RightArm 11.032219 -5.897307 58.276810
RightForeArm -18.365202 -0.000000 89.955966
RightHand -8.059607 -0.000000 8.483301
RightHandThumb1 -24.326973 -0.000000 -32.862282
LeftShoulder -40.653655 31.024591 3.212070
LeftArm 27.044425 -65.772895 -73.126501
LeftForeArm -17.671666 -0.000000 5.120379
LeftHand -29.150523 0.000000 43.266862
LeftHandThumb1 -26.253704 0.000000 33.147579
Head -2.624022 76.105192 -26.170929
2340
root 4.857314 37.968556 6.058828 -19.153206 -17.588171 8.187317
RightUpLeg 17.355464 5.771641 -7.204628
RightLeg 6.617778 -0.000000 -0.000000
RightFoot -11.533649 -12.170062 6.804336
RightToeBase 5.583028 -0.000000 -0.000000
LeftUpLeg -73.024323 -28.324755 -17.310039
LeftLeg 110.347254 -0.000000 -0.000000
LeftFoot 3.252298 11.628916 -31.519433
LeftToeBase 7.183953 -0.000000 -0.000000
Spine 40.587567 37.762449 28.467842
RightShoulder 3.722554 -21.038951 -25.739996
RightArm 11.144022 -5.935331 58.243878
RightForeArm -18.348548 -0.000000 89.826832
RightHand -8.085372 -0.000000 8.468047
RightHandThumb1 -24.326973 -0.000000 -32.862282
LeftShoulder -40.637552 31.031519 3.209075
LeftArm 27.055581 -65.846962 -73.164159
LeftForeArm -17.682891 -0.000000 5.083120
LeftHand -29.157482 0.000000 43.305607
LeftHandThumb1 -26.253704 0.000000 33.147579
Head -2.685010 76.134541 -26.239220
2341
root 4.917477 37.965494 6.043091 -19.069571 -17.545056 8.142854
RightUpLeg 17.248258 5.781760 -7.255061
RightLeg 6.605402 -0.000000 -0.000000
RightFoot -11.504055 -12.182804 6.845208
RightToeBase 5.594337 -0.000000 -0.000000
LeftUpLeg -73.019742 -28.284955 -17.292591
LeftLeg 110.317357 -0.000000 -0.000000
LeftFoot 3.244565 11.661232 -31.444308
LeftToeBase 7.009847 -0.000000 -0.000000
Spine 40.514376 37.718670 28.399974
RightShoulder 3.773014 -20.987374 -25.780438
RightArm 11.276820 -5.992398 58.243453
RightForeArm -18.258025 0.000000 89.656691
RightHand -8.113370 -0.000000 8.427675
RightHandThumb1 -24.326973 -0.000000 -32.862282
LeftShoulder -40.613753 30.975257 3.211633
LeftArm 26.860142 -65.882085 -72.983703
LeftForeArm -17.854005 0.000000 5.084356
LeftHand -29.072968 -0.000000 43.385707
LeftHandThumb1 -26.253704 0.000000 33.147579
Head -2.769677 76.090151 -26.399153
2342
root 4.976023 37.961046 6.025910 -18.993028 -17.509262 8.066758
RightUpLeg 17.154204 5.791385 -7.263691
RightLeg 6.598500 -0.000000 -0.000000
RightFoot -11.470516 -12.223391 6.822215
RightToeBase 5.544440 -0.000000 -0.000000
LeftUpLeg -73.023879 -28.246747 -17.211715
LeftLeg 110.319129 -0.000000 -0.000000
LeftFoot 3.238680 11.584219 -31.461397
LeftToeBase 7.038974 -0.000000 -0.000000
Spine 40.473760 37.677326 28.375875
RightShoulder 3.766604 -20.930999 -25.753796
RightArm 11.461419 -6.061063 58.146041
RightForeArm -18.299410 -0.000000 89.470470
RightHand -8.101044 -0.000000 8.494292
RightHandThumb1 -24.326973 -0.000000 -32.862282
LeftShoulder -40.621359 30.960259 3.199970
LeftArm 26.933265 -66.034556 -73.121924
LeftForeArm -17.901751 0.000000 5.157144
LeftHand -29.128443 -0.000000 43.479513
LeftHandThumb1 -26.253704 0.000000 33.147579
Head -2.988540 76.041447 -26.623912
2343
root 5.037851 37.957685 6.007875 -18.900806 -17.461077 8.017667
RightUpLeg 17.042650 5.797511 -7.303292
RightLeg 6.576491 -0.000000 -0.000000
RightFoot -11.440733 -12.287824 6.814078
RightToeBase 5.546727 -0.000000 -0.000000
LeftUpLeg -73.011445 -28.191582 -17.177176
LeftLeg 110.300765 -0.000000 -0.000000
LeftFoot 3.174115 11.611882 -31.454612
LeftToeBase 6.999747 -0.000000 -0.000000
Spine 40.396762 37.619954 28.275330
RightShoulder 3.761049 -20.885449 -25.708920
RightArm 11.743279 -6.134367 58.012806
RightForeArm -18.150995 0.000000 89.241832
RightHand -8.117816 -0.000000 8.626617
RightHandThumb1 -24.326973 -0.000000 -32.862282
LeftShoulder -40.633801 30.912180 3.170391
LeftArm 26.833167 -66.119828 -73.051427
LeftForeArm -17.901404 -0.000000 5.211343
LeftHand -29.257532 -0.000000 43.409390
LeftHandThumb1 -26.253704 0.000000 33.147579
Head -3.213799 76.089852 -26.874459
2344
root 5.098802 37.953856 5.989815 -18.817718 -17.378975 7.964884
RightUpLeg 16.958546 5.770984 -7.345825
RightLeg 6.539779 -0.000000 -0.000000
RightFoot -11.424403 -12.346439 6.819264
RightToeBase 5.569503 -0.000000 -0.000000
LeftUpLeg -72.966507 -28.127312 -17.169895
LeftLeg 110.281831 -0.000000 -0.000000
LeftFoot 3.117167 11.587899 -31.483367
LeftToeBase 7.066326 -0.000000 -0.000000
Spine 40.322952 37.541830 28.176409
RightShoulder 3.759413 -20.788111 -25.669718
RightArm 11.985523 -6.251029 57.886056
RightForeArm -18.027973 -0.000000 88.975804
RightHand -8.117437 -0.000000 8.647200
RightHandThumb1 -24.326973 -0.000000 -32.862282
LeftShoulder -40.558831 30.877578 3.173613
LeftArm 26.674173 -66.241207 -72.934317
LeftForeArm -18.080880 0.000000 5.233990
LeftHand -29.172294 -0.000000 43.576447
LeftHandThumb1 -26.253704 0.000000 33.147579
Head -3.477284 76.077505 -27.148902
2345
root 5.160326 37.949583 5.972040 -18.722630 -17.301271 7.905480
RightUpLeg 16.878761 5.741327 -7.386826
RightLeg 6.472517 -0.000000 -0.000000
RightFoot -11.364461 -12.437075 6.794162
RightToeBase 5.598746 -0.000000 -0.000000
LeftUpLeg -72.927678 -28.050314 -17.159757
LeftLeg 110.266489 -0.000000 -0.000000
LeftFoot 3.134317 11.613140 -31.465244
LeftToeBase 7.090207 -0.000000 -0.000000
Spine 40.221925 37.444136 28.066311
RightShoulder 3.853953 -20.642200 -25.667552
RightArm 12.128190 -6.365326 57.810118
RightForeArm -17.917921 -0.000000 88.721930
RightHand -8.096720 -0.000000 8.608967
RightHandThumb1 -24.326973 -0.000000 -32.862282
LeftShoulder -40.540377 30.900788 3.084512
LeftArm 26.664827 -66.324945 -72.896195
LeftForeArm -18.176251 0.000000 5.204385
LeftHand -29.196776 0.000000 43.703509
LeftHandThumb1 -26.253704 0.000000 33.147579
Head -3.727464 76.006172 -27.424811
2346
root 5.221295 37.944548 5.950553 -18.595961 -17.197050 7.825706
RightUpLeg 16.769755 5.664746 -7.418678
RightLeg 6.417542 -0.000000 -0.000000
RightFoot -11.326217 -12.499805 6.795551
RightToeBase 5.594916 -0.000000 -0.000000
LeftUpLeg -72.904571 -27.993657 -17.090022
LeftLeg 110.265654 -0.000000 -0.000000
LeftFoot 3.096587 11.563861 -31.622292
LeftToeBase 7.022114 -0.000000 -0.000000
Spine 40.060722 37.328159 27.921189
RightShoulder 3.996234 -20.513935 -25.684686
RightArm 12.235516 -6.455040 57.773840
RightForeArm -17.807912 -0.000000 88.491383
RightHand -8.059735 -0.000000 8.547741
RightHandThumb1 -24.326973 -0.000000 -32.862282
LeftShoulder -40.517099 30.878069 3.073788
LeftArm 26.613299 -66.405680 -72.854240
LeftForeArm -18.193188 -0.000000 5.189470
LeftHand -29.227287 -0.000000 43.833807
LeftHandThumb1 -26.253704 0.000000 33.147579
Head -3.732280 75.952337 -27.462438
2347
root 5.285744 37.939772 5.928482 -18.477836 -17.083865 7.773264
RightUpLeg 16.657884 5.563968 -7.497580
RightLeg 6.364138 -0.000000 -0.000000
RightFoot -11.312284 -12.501255 6.839136
RightToeBase 5.655431 -0.000000 -0.000000
LeftUpLeg -72.839930 -27.925390 -17.077466
LeftLeg 110.216981 -0.000000 -0.000000
LeftFoot 3.091674 11.602795 -31.621477
LeftToeBase 6.910395 -0.000000 -0.000000
Spine 39.963067 37.269762 27.818413
RightShoulder 4.064232 -20.414529 -25.710078
RightArm 12.354076 -6.549677 57.788612
RightForeArm -17.656038 0.000000 88.222050
RightHand -7.966301 -0.000000 8.489025
RightHandThumb1 -24.326973 -0.000000 -32.862282
LeftShoulder -40.415962 30.827609 3.100593
LeftArm 26.379457 -66.272283 -72.590111
LeftForeArm -18.359382 -0.000000 5.178020
LeftHand -29.234092 -0.000000 43.997856
LeftHandThumb1 -26.253704 0.000000 33.147579
Head -3.869486 75.871056 -27.640955
2348
root 5.351573 37.935357 5.904534 -18.356869 -16.962710 7.713433
RightUpLeg 16.541876 5.441495 -7.581887
RightLeg 6.313983 -0.000000 -0.000000
RightFoot -11.269105 -12.492751 6.878038
RightToeBase 5.665438 -0.000000 -0.000000
LeftUpLeg -72.779745 -27.880347 -17.013808
LeftLeg 110.191348 -0.000000 -0.000000
LeftFoot 3.082579 11.564662 -31.729668
LeftToeBase 6.934760 -0.000000 -0.000000
Spine 39.890515 37.227771 27.737292
RightShoulder 4.085902 -20.359373 -25.723678
RightArm 12.527589 -6.632543 57.800394
RightForeArm -17.510571 -0.000000 87.895177
RightHand -7.775633 -0.000000 8.347592
RightHandThumb1 -24.326973 -0.000000 -32.862282
LeftShoulder -40.426083 30.851138 3.014878
LeftArm 26.913438 -66.304342 -73.029635
LeftForeArm -18.319543 -0.000000 5.146977
LeftHand -29.329808 -0.000000 44.278675
LeftHandThumb1 -26.253704 0.000000 33.147579
Head -3.848755 75.861521 -27.640838
2349
root 5.417040 37.931258 5.880921 -18.228153 -16.800854 7.656079
RightUpLeg 16.434175 5.309632 -7.666320
RightLeg 6.256004 -0.000000 -0.000000
RightFoot -11.219121 -12.546311 6.883901
RightToeBase 5.679589 -0.000000 -0.000000
LeftUpLeg -72.689530 -27.845002 -16.960103
LeftLeg 110.155079 -0.000000 -0.000000
LeftFoot 3.106950 11.506052 -31.796830
LeftToeBase 6.809367 -0.000000 -0.000000
Spine 39.769678 37.144214 27.581568
RightShoulder 4.106433 -20.315495 -25.696535
RightArm 12.759561 -6.715398 57.759474
RightForeArm -17.342209 -0.000000 87.528781
RightHand -7.581417 -0.000000 8.298839
RightHandThumb1 -24.326973 -0.000000 -32.862282
LeftShoulder -40.420662 30.806123 3.004289
LeftArm 27.218034 -66.315045 -73.301395
LeftForeArm -18.166471 -0.000000 5.192133
LeftHand -29.429330 -0.000000 44.327828
LeftHandThumb1 -26.253704 0.000000 33.147579
Head -4.336394 75.709569 -28.105304
